<?xml version="1.0" standalone="no"?>
<!DOCTYPE svg PUBLIC "-//W3C//DTD SVG 20010904//EN"
 "http://www.w3.org/TR/2001/REC-SVG-20010904/DTD/svg10.dtd">
<svg version="1.0" xmlns="http://www.w3.org/2000/svg"
 width="200.000000pt" height="200.000000pt" viewBox="0 0 200.000000 200.000000"
 preserveAspectRatio="xMidYMid meet">
<metadata>
Created by potrace 1.11, written by Peter Selinger 2001-2013
</metadata>
<g transform="translate(0.000000,200.000000) scale(0.100000,-0.100000)"
fill="#000000" stroke="none">
<path d="M1149 1928 c-67 -46 -114 -102 -154 -184 -23 -48 -29 -52 -68 -58
-23 -4 -55 -13 -71 -21 -16 -8 -34 -15 -40 -15 -7 0 -45 -22 -85 -50 -55 -38
-71 -45 -66 -30 7 21 -17 65 -28 53 -9 -9 -9 -6 7 54 14 54 12 70 -9 53 -9 -8
-14 -6 -19 5 -7 18 -42 20 -49 3 -3 -7 -3 2 0 21 4 24 3 32 -5 27 -7 -4 -12
-12 -12 -17 0 -5 -21 -41 -46 -80 l-47 -70 11 -65 c13 -76 27 -97 59 -91 12 2
20 0 17 -4 -3 -5 0 -9 6 -9 7 0 8 -6 0 -19 -5 -11 -10 -34 -10 -51 0 -18 -4
-29 -10 -25 -5 3 -8 0 -5 -7 6 -17 -4 -30 -35 -45 -47 -21 -66 -21 -80 1 -15
23 -31 94 -32 139 -1 15 -4 27 -7 27 -12 -1 -36 -25 -39 -40 -2 -8 -10 -28
-18 -45 -21 -43 -54 -188 -54 -239 0 -24 9 -72 19 -107 10 -35 27 -95 36 -134
19 -76 50 -148 78 -179 9 -11 17 -26 17 -34 0 -7 6 -20 14 -27 10 -10 12 -32
8 -84 -3 -53 -1 -79 12 -105 10 -21 14 -45 10 -60 -5 -22 -1 -27 35 -42 31
-12 39 -19 31 -29 -12 -14 -3 -48 11 -39 5 3 9 1 9 -5 0 -5 -4 -13 -10 -16
-15 -9 -12 -25 4 -25 8 0 18 -5 22 -12 4 -7 3 -8 -4 -4 -16 10 -15 -9 1 -21
11 -8 23 -11 74 -15 9 -1 10 -5 2 -14 -15 -18 -7 -60 11 -55 8 2 20 4 27 5 7
1 16 5 19 9 11 11 56 8 49 -3 -4 -6 -11 -7 -17 -4 -6 4 -8 2 -5 -3 4 -6 0 -16
-8 -23 -8 -7 -15 -18 -15 -25 0 -18 33 -24 45 -8 6 7 28 16 50 18 l39 5 -33
-33 -32 -34 25 -5 c29 -6 40 0 49 24 4 13 17 18 42 18 19 0 35 5 35 11 0 6 -9
8 -22 4 -22 -6 -22 -6 2 14 13 11 28 17 32 14 5 -2 7 -1 6 4 -5 13 28 53 37
45 5 -4 5 -1 1 6 -5 9 0 19 13 28 12 8 21 22 21 30 0 8 6 17 14 20 9 3 12 12
9 21 -7 17 21 43 46 43 14 0 14 -2 1 -11 -12 -9 -11 -9 5 -3 11 4 35 9 53 12
17 2 32 9 32 16 0 15 97 49 112 40 7 -4 8 -3 4 4 -8 13 30 36 47 28 7 -2 3 -5
-8 -6 -18 -1 -18 -2 3 -11 13 -5 20 -13 17 -19 -3 -5 1 -10 9 -10 20 0 20 -8
1 -54 -17 -41 -12 -64 11 -45 8 6 14 10 15 8 0 -2 2 -12 4 -22 2 -11 7 -22 11
-25 4 -4 4 1 1 11 -8 21 6 23 22 3 10 -11 9 -16 -2 -23 -12 -7 -13 -10 -2 -20
11 -10 22 0 58 55 71 109 71 108 57 171 -7 31 -14 62 -16 69 -2 6 -19 12 -39
12 -40 0 -39 -2 -21 47 8 21 17 55 21 76 4 28 11 38 23 36 9 -1 25 1 35 4 41
16 48 15 63 -8 9 -13 17 -43 17 -65 1 -22 5 -40 9 -40 3 0 5 -11 3 -25 -4 -37
9 -38 39 -5 14 17 24 30 21 30 -3 0 4 18 15 40 11 21 20 49 20 61 0 12 7 46
16 74 14 43 15 63 6 116 -21 134 -45 236 -71 304 -14 39 -25 76 -25 82 1 7 -2
10 -7 8 -12 -8 -40 39 -50 85 -5 24 -5 56 0 80 7 31 5 42 -6 52 -9 7 -13 22
-10 36 3 14 1 37 -3 52 -5 18 -4 32 3 39 8 8 8 11 0 11 -6 0 -22 9 -37 21 -21
16 -24 24 -16 39 8 15 6 21 -10 30 -25 14 -26 26 0 33 30 8 24 27 -9 27 -23 0
-30 5 -33 23 -2 14 -10 22 -23 22 -33 0 -54 26 -44 54 12 30 6 36 -22 20 -30
-15 -59 -18 -83 -6 -18 9 -17 12 15 38 24 20 29 29 17 29 -9 0 -19 -4 -22 -9
-3 -5 -15 -11 -26 -14 -11 -3 -18 -1 -14 4 5 9 -7 11 -55 11 l-25 1 27 19 c27
19 35 38 18 38 -5 0 -38 -19 -72 -42z m161 -696 c66 -32 152 -100 144 -113 -3
-5 3 -12 13 -16 26 -9 45 -31 76 -87 38 -69 36 -86 -11 -86 -28 0 -45 7 -63
26 -20 22 -31 25 -76 23 -33 -2 -58 3 -69 12 -20 17 -120 17 -137 0 -6 -6 -26
-11 -44 -11 -27 0 -35 -5 -43 -27 -6 -16 -15 -36 -20 -45 -11 -20 -9 -21 14
-12 9 3 16 12 16 18 0 19 43 38 75 33 18 -3 37 2 47 10 13 12 21 12 38 3 21
-11 21 -12 3 -25 -10 -8 -29 -15 -43 -15 -14 0 -36 -6 -49 -13 -28 -14 -43
-44 -17 -34 9 4 16 5 16 3 0 -8 -99 -106 -107 -106 -4 0 -16 21 -27 46 -15 37
-27 49 -68 69 -110 53 -275 24 -323 -58 -20 -34 -13 -47 14 -23 16 15 19 15
24 2 4 -9 2 -18 -3 -21 -18 -11 -10 -25 13 -24 12 1 36 -4 52 -11 17 -7 33
-13 37 -12 4 1 5 -5 2 -13 -13 -33 -139 17 -227 90 -67 55 -137 157 -137 198
0 27 1 27 17 11 15 -14 18 -14 22 -1 5 11 12 12 30 6 14 -6 21 -14 17 -24 -3
-8 -1 -17 4 -20 4 -3 10 1 13 7 3 10 9 11 26 1 25 -15 97 -17 106 -3 4 6 15 4
30 -6 24 -16 145 -17 145 -1 0 4 7 7 16 5 9 -2 21 6 28 17 6 11 21 33 34 48
12 16 22 36 22 44 0 9 -13 0 -31 -23 -17 -22 -33 -41 -35 -43 -2 -3 -25 -4
-49 -2 -25 1 -45 -2 -45 -8 0 -15 -37 -23 -56 -13 -16 9 -15 11 3 20 11 6 23
9 25 6 7 -6 86 34 94 48 11 18 -4 19 -33 2 -16 -10 -7 3 24 32 28 27 59 61 68
77 23 37 45 35 45 -4 0 -46 51 -92 132 -117 65 -21 69 -21 148 -5 73 14 84 20
110 53 35 44 37 56 11 56 -11 0 -17 -5 -14 -13 3 -7 1 -13 -5 -13 -14 0 -22
24 -16 47 5 17 1 19 -25 15 -19 -2 -31 0 -31 7 0 6 -9 11 -19 11 -21 0 -34 13
-24 24 12 12 38 6 93 -22z m-795 -120 c-12 -13 -24 22 -12 37 10 12 13 11 15
-8 2 -13 1 -26 -3 -29z m-29 -40 c-9 -9 -37 8 -31 18 5 8 11 7 21 -1 8 -6 12
-14 10 -17z m724 -187 c-7 -9 -15 -13 -19 -10 -3 3 1 10 9 15 21 14 24 12 10
-5z m340 -9 c0 -24 -15 -26 -28 -5 -11 16 -9 19 8 19 11 0 20 -6 20 -14z m-51
-67 c-14 -27 -19 -24 -19 12 0 27 2 30 15 19 11 -9 12 -17 4 -31z"/>
<path d="M1546 342 c-3 -6 -1 -14 5 -17 15 -10 25 3 12 16 -7 7 -13 7 -17 1z"/>
<path d="M1480 255 c-7 -9 -11 -17 -9 -20 3 -2 10 5 17 15 14 24 10 26 -8 5z"/>
</g>
</svg>
